<svg id="Layer_1" data-name="Layer 1" xmlns="http://www.w3.org/2000/svg" viewBox="0 0 77.7 80.12"><defs><style>.cls-1{fill:#fff;}</style></defs><path class="cls-1" d="M61.52,33.24a3.19,3.19,0,0,1-2.72-1.52L55,25.57a3.18,3.18,0,0,1,1.05-4.38l6.16-3.79a3.19,3.19,0,0,1,4.38,1.05l3.78,6.16a3.19,3.19,0,0,1-1,4.38l-6.16,3.78A3.15,3.15,0,0,1,61.52,33.24Zm2.37-13.58a.48.48,0,0,0-.24.07l-6.16,3.79a.45.45,0,0,0-.15.62l3.79,6.15a.44.44,0,0,0,.62.15l6.16-3.78a.45.45,0,0,0,.14-.62l-3.78-6.16A.44.44,0,0,0,63.89,19.66Z" transform="translate(-9.51 -9.18)"/><path class="cls-1" d="M46.8,42.29a3.2,3.2,0,0,1-.75-.09,3.13,3.13,0,0,1-2-1.43l-3.79-6.16a3.19,3.19,0,0,1,1.05-4.38l6.16-3.78a3.14,3.14,0,0,1,2.41-.39,3.19,3.19,0,0,1,2,1.44l3.78,6.15a3.17,3.17,0,0,1-1,4.38l-6.16,3.79A3.19,3.19,0,0,1,46.8,42.29Zm2.36-13.58a.38.38,0,0,0-.23.07l-6.16,3.78a.45.45,0,0,0-.15.62l3.79,6.16a.4.4,0,0,0,.28.2.45.45,0,0,0,.34,0l6.15-3.79a.46.46,0,0,0,.21-.28.42.42,0,0,0-.06-.34l-3.78-6.15a.49.49,0,0,0-.28-.21Z" transform="translate(-9.51 -9.18)"/><path class="cls-1" d="M32.08,51.34a3.19,3.19,0,0,1-2.72-1.52l-3.79-6.16a3.18,3.18,0,0,1,1.05-4.38l6.16-3.79a3.18,3.18,0,0,1,4.38,1l3.78,6.16a3.19,3.19,0,0,1-1,4.38l-6.16,3.78A3.16,3.16,0,0,1,32.08,51.34Zm2.36-13.58a.46.46,0,0,0-.23.06l-6.16,3.79a.45.45,0,0,0-.15.62l3.79,6.16a.46.46,0,0,0,.62.15l6.16-3.79a.45.45,0,0,0,.14-.62L34.83,38A.44.44,0,0,0,34.44,37.76Z" transform="translate(-9.51 -9.18)"/><path class="cls-1" d="M70,47a3.19,3.19,0,0,1-2.72-1.52l-3.78-6.15a3.2,3.2,0,0,1,1-4.39l6.16-3.78a3.17,3.17,0,0,1,4.38,1l3.79,6.15a3.2,3.2,0,0,1-1,4.39l-6.16,3.78A3.15,3.15,0,0,1,70,47ZM72.33,33.4a.42.42,0,0,0-.24.07l-6.16,3.78a.46.46,0,0,0-.15.62L69.57,44a.45.45,0,0,0,.62.15l6.16-3.78a.46.46,0,0,0,.15-.63l-3.79-6.15A.44.44,0,0,0,72.33,33.4Z" transform="translate(-9.51 -9.18)"/><path class="cls-1" d="M55.24,56a3.19,3.19,0,0,1-2.72-1.52l-3.78-6.16a3.19,3.19,0,0,1,1-4.38l6.16-3.78a3.18,3.18,0,0,1,4.38,1l3.79,6.16a3.19,3.19,0,0,1-1,4.38L56.9,55.55A3.16,3.16,0,0,1,55.24,56Zm2.37-13.58a.42.42,0,0,0-.24.07L51.21,46.3a.44.44,0,0,0-.2.28.42.42,0,0,0,.06.34l3.78,6.16a.46.46,0,0,0,.62.15l6.16-3.79a.4.4,0,0,0,.2-.28.45.45,0,0,0,0-.34L58,42.66A.43.43,0,0,0,57.61,42.45Z" transform="translate(-9.51 -9.18)"/><path class="cls-1" d="M40.52,65.07a3.19,3.19,0,0,1-2.72-1.52L34,57.4A3.14,3.14,0,0,1,33.63,55a3.21,3.21,0,0,1,1.43-2l6.16-3.78a3.19,3.19,0,0,1,4.38,1.05l3.79,6.15a3.2,3.2,0,0,1-1,4.39L42.18,64.6A3.15,3.15,0,0,1,40.52,65.07Zm2.37-13.58a.49.49,0,0,0-.24.07l-6.16,3.78a.49.49,0,0,0-.2.28.44.44,0,0,0,.06.35l3.78,6.15a.45.45,0,0,0,.62.15l6.16-3.78a.45.45,0,0,0,.15-.62l-3.79-6.16a.4.4,0,0,0-.28-.2Z" transform="translate(-9.51 -9.18)"/><path class="cls-1" d="M39.08,84.38a5.54,5.54,0,0,1-5.54-5.53V68.9L17.93,43.5a5,5,0,0,1,.19-5.5,5.06,5.06,0,0,1,1.45-1.35L63.06,9.92a5,5,0,0,1,6.85,1.64L86.47,38.5a5,5,0,0,1,.73,2.82A4.94,4.94,0,0,1,86.28,44a5,5,0,0,1-1.45,1.35L55.75,63.22V73.36a6.93,6.93,0,0,1-11.13,5.52A5.54,5.54,0,0,1,39.08,84.38ZM65.66,11.92a2.23,2.23,0,0,0-1.17.33L21,39a2.23,2.23,0,0,0-.65.61,2.18,2.18,0,0,0-.42,1.21,2.28,2.28,0,0,0,.33,1.27L36.08,67.8a1.36,1.36,0,0,1,.2.71V78.85a2.8,2.8,0,0,0,5.6,0V73.36a1.37,1.37,0,1,1,2.74,0,4.2,4.2,0,1,0,8.4,0V62.46a1.36,1.36,0,0,1,.65-1.17L83.4,43a2.11,2.11,0,0,0,.65-.61,2.22,2.22,0,0,0,.09-2.47L67.58,13a2.26,2.26,0,0,0-1.39-1A2.39,2.39,0,0,0,65.66,11.92Z" transform="translate(-9.51 -9.18)"/><path class="cls-1" d="M46.11,89.31c-17.74,0-36.6-4.73-36.6-13.49,0-5.66,8.65-10.45,22.58-12.5a1.37,1.37,0,1,1,.4,2.71c-11.92,1.75-20.25,5.77-20.25,9.79,0,5.09,13.91,10.75,33.87,10.75S80,80.91,80,75.82c0-3.73-7.23-7.52-18-9.43a1.37,1.37,0,1,1,.48-2.69C75.15,66,82.71,70.48,82.71,75.82,82.71,84.58,63.85,89.31,46.11,89.31Z" transform="translate(-9.51 -9.18)"/><path class="cls-1" d="M12.27,80.16a1.4,1.4,0,0,1-.88-.32,1.37,1.37,0,0,1-.16-1.93c3.4-4,12.07-7.22,23.2-8.54a1.36,1.36,0,1,1,.32,2.71c-10.3,1.23-18.51,4.14-21.43,7.6A1.37,1.37,0,0,1,12.27,80.16Z" transform="translate(-9.51 -9.18)"/><path class="cls-1" d="M80.06,80.3A1.34,1.34,0,0,1,79,79.79c-3.1-3.84-12.65-7-24.32-8a1.37,1.37,0,1,1,.23-2.73c12.76,1.12,22.56,4.48,26.22,9A1.38,1.38,0,0,1,80.92,80,1.36,1.36,0,0,1,80.06,80.3Z" transform="translate(-9.51 -9.18)"/></svg>
