<svg xmlns="http://www.w3.org/2000/svg" xmlns:xlink="http://www.w3.org/1999/xlink" viewBox="0 0 1080 1080" width="1080" height="1080" preserveAspectRatio="xMidYMid meet" style="width: 100%; height: 100%; transform: translate3d(0px, 0px, 0px); content-visibility: visible;"><defs><clipPath id="__lottie_element_2"><rect width="1080" height="1080" x="0" y="0"></rect></clipPath></defs><g clip-path="url(#__lottie_element_2)"><g transform="matrix(1,0,0,1,460,459.9630126953125)" opacity="1" style="display: block;"><g opacity="1" transform="matrix(1,0,0,1,0,0)"><path fill="rgb(241,239,237)" fill-opacity="1" d=" M144,111.93699645996094 C144,111.93699645996094 -45.70000076293945,111.93699645996094 -45.70000076293945,111.93699645996094 C-45.70000076293945,111.93699645996094 -128.5,174.03700256347656 -128.5,174.03700256347656 C-132.79400634765625,177.24000549316406 -138.8719940185547,176.3560028076172 -142.0749969482422,172.06199645996094 C-143.3300018310547,170.3800048828125 -144.0050048828125,168.33599853515625 -144,166.23699951171875 C-144,166.23699951171875 -144,112.03700256347656 -144,112.03700256347656 C-179.33299255371094,112.00399780273438 -207.9669952392578,83.37000274658203 -208,48.0369987487793 C-208,48.0369987487793 -208,-111.96299743652344 -208,-111.96299743652344 C-207.9669952392578,-147.29600524902344 -179.33299255371094,-175.92999267578125 -144,-175.96299743652344 C-144,-175.96299743652344 144,-175.96299743652344 144,-175.96299743652344 C179.33299255371094,-175.92999267578125 207.9669952392578,-147.29600524902344 208,-111.96299743652344 C208,-111.96299743652344 208,48.0369987487793 208,48.0369987487793 C207.9949951171875,83.33399963378906 179.3769989013672,111.94200134277344 144.0800018310547,111.93699645996094 C144.05299377441406,111.93699645996094 144.02699279785156,111.93699645996094 144,111.93699645996094z"></path></g></g><g transform="matrix(1,0,0,1,636,620.0130004882812)" opacity="1" style="display: block;"><g opacity="1" transform="matrix(1,0,0,1,0,0)"><path fill="rgb(211, 35, 43)" fill-opacity="1" d=" M192,-112.01300048828125 C192,-112.01300048828125 192,47.98699951171875 192,47.98699951171875 C191.9669952392578,83.31999969482422 163.33299255371094,111.9540023803711 128,111.98699951171875 C128,111.98699951171875 96,111.98699951171875 96,111.98699951171875 C96,111.98699951171875 96,166.28700256347656 96,166.28700256347656 C96.01399993896484,171.6439971923828 91.68199920654297,175.9980010986328 86.32499694824219,176.01199340820312 C84.22599792480469,176.01699829101562 82.18199920654297,175.3419952392578 80.5,174.08700561523438 C80.5,174.08700561523438 -2.299999952316284,111.98699951171875 -2.299999952316284,111.98699951171875 C-2.299999952316284,111.98699951171875 -128,111.98699951171875 -128,111.98699951171875 C-163.33299255371094,111.9540023803711 -191.9669952392578,83.31999969482422 -192,47.98699951171875 C-192,47.98699951171875 -192,-16.01300048828125 -192,-16.01300048828125 C-192,-16.01300048828125 -32,-16.01300048828125 -32,-16.01300048828125 C20.985000610351562,-16.09600067138672 63.91699981689453,-59.02799987792969 64,-112.01300048828125 C64,-112.01300048828125 64,-176.01300048828125 64,-176.01300048828125 C64,-176.01300048828125 128,-176.01300048828125 128,-176.01300048828125 C163.33299255371094,-175.97999572753906 191.9669952392578,-147.3459930419922 192,-112.01300048828125z"></path></g></g><g transform="matrix(1.8680846691131592,0,0,1.8680846691131592,1826.1895751953125,734.5047607421875)" opacity="1" style="display: block;"><g opacity="1" transform="matrix(1,0,0,1,-788.1599731445312,-164.16000366210938)"><path fill="rgb(211, 35, 43)" fill-opacity="1" d=" M0,-11.84000015258789 C6.534496307373047,-11.84000015258789 11.84000015258789,-6.534496307373047 11.84000015258789,0 C11.84000015258789,6.534496307373047 6.534496307373047,11.84000015258789 0,11.84000015258789 C-6.534496307373047,11.84000015258789 -11.84000015258789,6.534496307373047 -11.84000015258789,0 C-11.84000015258789,-6.534496307373047 -6.534496307373047,-11.84000015258789 0,-11.84000015258789z"></path></g></g><g transform="matrix(0,0,0,0,457.8399963378906,427.8399963378906)" opacity="1" style="display: block;"><g opacity="1" transform="matrix(1,0,0,1,-788.1599731445312,-164.16000366210938)"><path fill="rgb(211, 35, 43)" fill-opacity="1" d=" M0,-11.84000015258789 C6.534496307373047,-11.84000015258789 11.84000015258789,-6.534496307373047 11.84000015258789,0 C11.84000015258789,6.534496307373047 6.534496307373047,11.84000015258789 0,11.84000015258789 C-6.534496307373047,11.84000015258789 -11.84000015258789,6.534496307373047 -11.84000015258789,0 C-11.84000015258789,-6.534496307373047 -6.534496307373047,-11.84000015258789 0,-11.84000015258789z"></path></g></g><g transform="matrix(0,0,0,0,561.8400268554688,427.8399963378906)" opacity="1" style="display: block;"><g opacity="1" transform="matrix(1,0,0,1,-788.1599731445312,-164.16000366210938)"><path fill="rgb(211, 35, 43)" fill-opacity="1" d=" M0,-11.84000015258789 C6.534496307373047,-11.84000015258789 11.84000015258789,-6.534496307373047 11.84000015258789,0 C11.84000015258789,6.534496307373047 6.534496307373047,11.84000015258789 0,11.84000015258789 C-6.534496307373047,11.84000015258789 -11.84000015258789,6.534496307373047 -11.84000015258789,0 C-11.84000015258789,-6.534496307373047 -6.534496307373047,-11.84000015258789 0,-11.84000015258789z"></path></g></g></g></svg>
