<svg id="Layer_1" data-name="Layer 1" xmlns="http://www.w3.org/2000/svg" viewBox="0 0 79.29 78.87"><defs><style>.cls-1{fill:#fff;}</style></defs><path class="cls-1" d="M26.51,46.63a1.15,1.15,0,0,1-.26,0c-7.49-1.35-16.42-4-16.42-8.75V28.7a1.48,1.48,0,1,1,2.95,0v9.15c0,1.33,3.73,4,14,5.86a1.47,1.47,0,0,1-.26,2.92Z" transform="translate(-9.83 -6.18)"/><path class="cls-1" d="M49.48,48.47c-1.92,0-3.8,0-5.64-.1a1.48,1.48,0,0,1-1.43-1.52,1.52,1.52,0,0,1,1.53-1.43c1.81.07,3.66.1,5.54.1,22.4,0,36.69-4.54,36.69-7.67V28.7a1.48,1.48,0,1,1,3,0v9.15C89.12,44.82,69.18,48.47,49.48,48.47Z" transform="translate(-9.83 -6.18)"/><path class="cls-1" d="M49.48,66.76c-19.7,0-39.65-3.64-39.65-10.62V47a1.48,1.48,0,0,1,2.95,0c0,2,6.77,5.4,21.81,6.95a1.47,1.47,0,1,1-.3,2.93C28.83,56.31,18,54.8,12.78,51.34v4.8c0,3.13,14.29,7.68,36.7,7.68s36.69-4.55,36.69-7.68V51.29c-6.26,4.17-21.55,6.33-36.69,6.33-2.07,0-4.18,0-6.27-.12a1.48,1.48,0,1,1,.11-3c2,.08,4.12.12,6.16.12,22.4,0,36.69-4.55,36.69-7.68a1.48,1.48,0,0,1,3,0v9.15C89.12,63.12,69.18,66.76,49.48,66.76Z" transform="translate(-9.83 -6.18)"/><path class="cls-1" d="M49.48,85.06c-19.7,0-39.65-3.65-39.65-10.62V65.29a1.48,1.48,0,0,1,2.95,0c0,3.13,14.29,7.68,36.7,7.68s36.69-4.55,36.69-7.68a1.48,1.48,0,0,1,3,0v9.15C89.12,81.41,69.18,85.06,49.48,85.06ZM12.78,69.59v4.85c0,3.13,14.29,7.67,36.7,7.67s36.69-4.54,36.69-7.67V69.59c-6.26,4.17-21.55,6.32-36.69,6.32S19,73.76,12.78,69.59Z" transform="translate(-9.83 -6.18)"/><path class="cls-1" d="M53.86,20l-.2,0a1.47,1.47,0,0,1-1.26-1.66,22.56,22.56,0,0,1,3.37-9c-8.39,1.16-10.37,7.72-10.46,8a1.47,1.47,0,0,1-2.84-.79c0-.11,3.14-10.64,16.4-10.36a1.48,1.48,0,0,1,1.33.91,1.46,1.46,0,0,1-.29,1.58,19.91,19.91,0,0,0-4.59,10A1.48,1.48,0,0,1,53.86,20Z" transform="translate(-9.83 -6.18)"/><path class="cls-1" d="M52.66,32.23a7.66,7.66,0,1,1,7.66-7.65A7.66,7.66,0,0,1,52.66,32.23Zm0-12.36a4.71,4.71,0,1,0,4.71,4.71A4.71,4.71,0,0,0,52.66,19.87Z" transform="translate(-9.83 -6.18)"/><path class="cls-1" d="M42.72,30.66a7.66,7.66,0,1,1,6.85-11.07,1.47,1.47,0,0,1-.27,1.69A4.69,4.69,0,0,0,48,24.58a4.63,4.63,0,0,0,.5,2.09,1.48,1.48,0,0,1-.27,1.69A7.59,7.59,0,0,1,42.72,30.66Zm0-12.37a4.71,4.71,0,1,0,2.65,8.61,7.67,7.67,0,0,1,1.07-6.78A4.69,4.69,0,0,0,42.72,18.29Z" transform="translate(-9.83 -6.18)"/><path class="cls-1" d="M49.48,39.32A148.2,148.2,0,0,1,34,38.54a1.48,1.48,0,0,1-1.31-1.62,1.46,1.46,0,0,1,1.62-1.31,145.18,145.18,0,0,0,15.22.76c22.4,0,36.69-4.54,36.69-7.67,0-1.58-6.38-6.05-26.56-7.35a7.66,7.66,0,0,1-7,10.88,7.61,7.61,0,0,1-5.87-2.74A7.66,7.66,0,0,1,35.06,23a7.07,7.07,0,0,1,.12-1.3c-15.27,1.49-22.4,5-22.4,7,0,1.33,3.71,4,13.94,5.85a1.47,1.47,0,1,1-.53,2.9c-7.46-1.36-16.36-4-16.36-8.75,0-7.36,20.93-9.62,27.35-10.14a1.46,1.46,0,0,1,1.36.67,1.48,1.48,0,0,1,.05,1.51,4.71,4.71,0,0,0,7.49,5.56,1.48,1.48,0,0,1,1.28-.43,1.5,1.5,0,0,1,1.09.8,4.7,4.7,0,1,0,7.1-5.8,1.47,1.47,0,0,1-.48-1.67,1.49,1.49,0,0,1,1.45-1c15,.67,32.6,3.81,32.6,10.47C89.12,35.67,69.18,39.32,49.48,39.32Z" transform="translate(-9.83 -6.18)"/><path class="cls-1" d="M39,60a6.37,6.37,0,0,1-6.37-6.36V49.28a5.25,5.25,0,0,1-2.35.55A5.3,5.3,0,0,1,25,44.53v-11a1.47,1.47,0,1,1,2.94,0v11a2.35,2.35,0,0,0,4.7,0V34.24a1.48,1.48,0,0,1,2.95,0v19.4a3.42,3.42,0,1,0,6.83,0v-10a1.48,1.48,0,1,1,3,0v10A6.36,6.36,0,0,1,39,60Z" transform="translate(-9.83 -6.18)"/></svg>
