<svg id="Layer_1" data-name="Layer 1" xmlns="http://www.w3.org/2000/svg" viewBox="0 0 66.83 88.4"><defs><style>.cls-1{fill:#fff;}</style></defs><path class="cls-1" d="M46.21,50.63a1.57,1.57,0,0,1-1.57-1.57V28.45a1.57,1.57,0,0,1,2.68-1.11L66.41,46.43a1.58,1.58,0,0,1,0,2.22,1.56,1.56,0,0,1-2.22,0L47.78,32.25V49.06A1.57,1.57,0,0,1,46.21,50.63Z" transform="translate(-16.06 -2.05)"/><path class="cls-1" d="M73.2,30h-27a1.57,1.57,0,1,1,0-3.14h27a1.57,1.57,0,0,1,0,3.14Z" transform="translate(-16.06 -2.05)"/><path class="cls-1" d="M24,90.46c-.25,0-.5,0-.76,0a8.12,8.12,0,0,1-7.14-8.15V62.33a14.44,14.44,0,0,1,4.21-10.16l8.11-8.11a1.57,1.57,0,0,1,2.34.13,11.48,11.48,0,0,0,10.57,3.44,17,17,0,0,1,8.9.79,6.62,6.62,0,0,1,4.12,6.2V69.88a7.53,7.53,0,0,1-6.62,7.55,7.39,7.39,0,0,1-4.92-1.29v.25a7.2,7.2,0,0,1-6.33,7.21,7,7,0,0,1-4.55-1.13,7.92,7.92,0,0,1-7.93,8Zm5.53-43.07-7,7a11.3,11.3,0,0,0-3.29,7.94V82.27a5,5,0,0,0,4.3,5,4.77,4.77,0,0,0,5.25-4.75V76.62a1.57,1.57,0,1,1,3.14,0,3.85,3.85,0,0,0,1.27,2.86,3.78,3.78,0,0,0,3,1,4,4,0,0,0,3.48-4.08V70.12a1.57,1.57,0,1,1,3.14,0,4.24,4.24,0,0,0,1.38,3.11,4.19,4.19,0,0,0,3.24,1.07,4.37,4.37,0,0,0,3.78-4.42V54.62A3.54,3.54,0,0,0,49,51.34a13.85,13.85,0,0,0-7.26-.6A14.9,14.9,0,0,1,29.49,47.39Z" transform="translate(-16.06 -2.05)"/><path class="cls-1" d="M52.74,64.52A1.56,1.56,0,0,1,51.17,63V54.62A3.54,3.54,0,0,0,49,51.34a13.85,13.85,0,0,0-7.26-.6,14.6,14.6,0,0,1-13.5-4.59,1.56,1.56,0,0,1,.12-2.09L69.93,2.51a1.58,1.58,0,0,1,2.22,0A36.69,36.69,0,0,1,53,64.5ZM44.45,47.38a15.47,15.47,0,0,1,5.74,1,6.62,6.62,0,0,1,4.12,6.2V61A33.54,33.54,0,0,0,71,5.87L31.72,45.16a11.81,11.81,0,0,0,9.57,2.47A21.88,21.88,0,0,1,44.45,47.38Z" transform="translate(-16.06 -2.05)"/><path class="cls-1" d="M52.74,56.19a1.56,1.56,0,0,1-1-.33,1.58,1.58,0,0,1-.6-1.24A3.54,3.54,0,0,0,49,51.34a13.85,13.85,0,0,0-7.26-.6,14.6,14.6,0,0,1-13.5-4.59,1.56,1.56,0,0,1,.12-2.09L64.19,8.25a1.58,1.58,0,0,1,2.22,0A28.52,28.52,0,0,1,53.12,56.14,1.28,1.28,0,0,1,52.74,56.19Zm-8.29-8.81a15.47,15.47,0,0,1,5.74,1A6.58,6.58,0,0,1,54,52.62a25.37,25.37,0,0,0,11.24-41L31.72,45.16a11.81,11.81,0,0,0,9.57,2.47A21.88,21.88,0,0,1,44.45,47.38Z" transform="translate(-16.06 -2.05)"/><path class="cls-1" d="M30.32,78.19a1.57,1.57,0,0,1-1.57-1.57V61.87a1.57,1.57,0,1,1,3.14,0V76.62A1.57,1.57,0,0,1,30.32,78.19Z" transform="translate(-16.06 -2.05)"/><path class="cls-1" d="M41.2,71.69a1.57,1.57,0,0,1-1.57-1.57V58.51a1.57,1.57,0,1,1,3.14,0V70.12A1.57,1.57,0,0,1,41.2,71.69Z" transform="translate(-16.06 -2.05)"/></svg>
