<svg id="Layer_1" data-name="Layer 1" xmlns="http://www.w3.org/2000/svg" viewBox="0 0 85.87 86.22"><defs><style>.cls-1{fill:#fff;}</style></defs><path class="cls-1" d="M90.79,89.65H8.16A1.62,1.62,0,0,1,6.54,88V46.36a1.63,1.63,0,0,1,1.62-1.62H90.79a1.62,1.62,0,0,1,1.62,1.62V88A1.61,1.61,0,0,1,90.79,89.65Zm-81-3.24H89.17V48H9.78Z" transform="translate(-6.54 -3.43)"/><path class="cls-1" d="M44.09,79.51h-.56a7,7,0,0,1-7-7v-7.7a3.78,3.78,0,0,0-7.55,0V66a7,7,0,0,1-14,0V63.8A6.79,6.79,0,0,0,8.16,57a1.62,1.62,0,1,1,0-3.24,10,10,0,0,1,10,10V66a3.78,3.78,0,0,0,7.55,0V64.79a7,7,0,1,1,14,0v7.7a3.77,3.77,0,0,0,3.77,3.77h.56a3.77,3.77,0,0,0,3.77-3.77V60.05a6.27,6.27,0,0,1,12.54,0v3.51a3.46,3.46,0,1,0,6.92,0V62.33a7,7,0,0,1,14,0v8a3.47,3.47,0,0,0,3.47,3.46h.9a3.46,3.46,0,0,0,3.46-3.46V53.24a1.62,1.62,0,1,1,3.24,0v17.1a6.71,6.71,0,0,1-6.7,6.7h-.9a6.72,6.72,0,0,1-6.71-6.7v-8a3.77,3.77,0,0,0-7.54,0v1.23a6.7,6.7,0,0,1-13.4,0V60.05a3,3,0,0,0-6.06,0V72.49A7,7,0,0,1,44.09,79.51Z" transform="translate(-6.54 -3.43)"/><path class="cls-1" d="M51.4,39.28a4.48,4.48,0,0,1-2.83-1C36,28.13,38.71,20.61,41.42,17c2.9-3.83,7.35-5.79,11.35-5s6.71,2.72,7.92,5.64c2.51,6.09-2.39,14.89-5.54,19.59a4.53,4.53,0,0,1-3.08,1.95A3.85,3.85,0,0,1,51.4,39.28ZM51,15.11C48.19,15.11,45.55,17,44,19c-3.56,4.7-1.34,10.34,6.6,16.78a1.24,1.24,0,0,0,1,.26,1.28,1.28,0,0,0,.88-.56c2.24-3.35,7.24-11.67,5.23-16.54-.78-1.89-2.6-3.1-5.56-3.7A6,6,0,0,0,51,15.11Z" transform="translate(-6.54 -3.43)"/><path class="cls-1" d="M49.37,15.29h-.16a1.61,1.61,0,0,1-1.45-1.76,17.2,17.2,0,0,1,4.87-9.61,1.62,1.62,0,0,1,2.31,2.28,14.23,14.23,0,0,0-4,7.64A1.62,1.62,0,0,1,49.37,15.29Z" transform="translate(-6.54 -3.43)"/><path class="cls-1" d="M46.48,27.89a1.61,1.61,0,0,1-1.26-.61l-1.08-1.34a1.62,1.62,0,1,1,2.53-2l1.08,1.35a1.62,1.62,0,0,1-1.27,2.63Z" transform="translate(-6.54 -3.43)"/><path class="cls-1" d="M51.28,22.38a1.62,1.62,0,0,1-1.5-2.23l.64-1.59a1.62,1.62,0,0,1,3,1.22l-.65,1.59A1.62,1.62,0,0,1,51.28,22.38Z" transform="translate(-6.54 -3.43)"/><path class="cls-1" d="M51.8,30.83a1.66,1.66,0,0,1-.61-.12,1.63,1.63,0,0,1-.89-2.11L51,27a1.62,1.62,0,0,1,3,1.22l-.64,1.59A1.62,1.62,0,0,1,51.8,30.83Z" transform="translate(-6.54 -3.43)"/><path class="cls-1" d="M90.79,48H8.16a1.62,1.62,0,0,1-1-2.91L40,20.48a1.62,1.62,0,0,1,2.56,1.63c-.85,4,1.94,8.69,8.07,13.66a1.24,1.24,0,0,0,1,.26,1.28,1.28,0,0,0,.88-.56c2.24-3.35,7.24-11.67,5.23-16.54-.78-1.89-2.6-3.1-5.56-3.7l-.45,0a1.62,1.62,0,0,1-.78-2.9L62.28,3.75a1.62,1.62,0,0,1,1.88,0c1,.65,23.69,16.22,28.23,42.38A1.61,1.61,0,0,1,90.79,48ZM13,44.74h75.8c-4.46-20.8-21.4-34.57-25.56-37.68l-7.74,5.8a8.87,8.87,0,0,1,5.16,4.83c2.51,6.09-2.39,14.89-5.54,19.59a4.53,4.53,0,0,1-3.08,1.95,4.45,4.45,0,0,1-3.5-.95c-5.61-4.54-8.73-9-9.33-13.2Z" transform="translate(-6.54 -3.43)"/><path class="cls-1" d="M88.69,39.83h-4a1.62,1.62,0,0,1,0-3.24h4a1.62,1.62,0,1,1,0,3.24Z" transform="translate(-6.54 -3.43)"/><path class="cls-1" d="M79.28,39.83H73.93a1.62,1.62,0,0,1,0-3.24h5.35a1.62,1.62,0,1,1,0,3.24Z" transform="translate(-6.54 -3.43)"/><path class="cls-1" d="M68.58,39.83H64.52a1.62,1.62,0,1,1,0-3.24h4.06a1.62,1.62,0,1,1,0,3.24Z" transform="translate(-6.54 -3.43)"/></svg>
