<svg id="Layer_1" data-name="Layer 1" xmlns="http://www.w3.org/2000/svg" viewBox="0 0 81.63 81.63"><defs><style>.cls-1{fill:#fff;}</style></defs><path class="cls-1" d="M51.2,65.24a8.48,8.48,0,0,1-1.22-.1,7.36,7.36,0,0,1-6.21-6.21l-.49-3.08a4.7,4.7,0,0,0-3.9-3.91l-3.09-.48a7.47,7.47,0,0,1-2.22-14L36.85,36a4.7,4.7,0,0,0,2.51-4.93L38.87,28a7.47,7.47,0,0,1,12.65-6.45l2.21,2.21a4.68,4.68,0,0,0,5.46.87L62,23.22a7.46,7.46,0,0,1,10,10L70.59,36a4.7,4.7,0,0,0,.87,5.46l2.2,2.2a7.46,7.46,0,0,1-6.44,12.65l-3.09-.48a4.68,4.68,0,0,0-4.92,2.5l-1.42,2.78A7.32,7.32,0,0,1,51.2,65.24ZM46.31,22.12a4.93,4.93,0,0,0-2.2.53,4.6,4.6,0,0,0-2.51,4.93l.49,3.08a7.44,7.44,0,0,1-4,7.82L35.33,39.9a4.7,4.7,0,0,0,1.4,8.83l3.08.49a7.43,7.43,0,0,1,6.2,6.2l.49,3.08a4.7,4.7,0,0,0,8.83,1.4l1.42-2.78a7.42,7.42,0,0,1,7.82-4l3.08.49a4.7,4.7,0,0,0,4.06-8L69.5,43.45a7.46,7.46,0,0,1-1.37-8.67L69.55,32a4.71,4.71,0,0,0-6.33-6.32L60.44,27.1a7.44,7.44,0,0,1-8.66-1.37l-2.21-2.21A4.53,4.53,0,0,0,46.31,22.12Z" transform="translate(-8.56 -5.04)"/><path class="cls-1" d="M54.79,75.75a35.21,35.21,0,0,1-23-8.49,1.38,1.38,0,1,1,1.8-2.1,32.61,32.61,0,1,0-3.64-3.66,1.38,1.38,0,0,1-2.11,1.79,35.49,35.49,0,1,1,27,12.46Z" transform="translate(-8.56 -5.04)"/><path class="cls-1" d="M12.23,86.67A3.68,3.68,0,0,1,9.64,80.4L40,50a1.37,1.37,0,0,1,1.51-.29,7.42,7.42,0,0,1,4,4,1.38,1.38,0,0,1-.29,1.51L14.83,85.59A3.67,3.67,0,0,1,12.23,86.67Zm29-34L11.59,82.36a.91.91,0,0,0,0,1.28.93.93,0,0,0,1.28,0L42.53,54A4.59,4.59,0,0,0,41.25,52.7Z" transform="translate(-8.56 -5.04)"/><path class="cls-1" d="M33.41,79.33c-2.48,0-6.34-1.25-8.75-6.16a1.36,1.36,0,0,1,.63-1.84,1.38,1.38,0,0,1,1.85.62c1.78,3.62,4.28,4.44,5.74,4.58a11.77,11.77,0,0,1,3.34-8,1.38,1.38,0,0,1,1.91,2,8.72,8.72,0,0,0-2.39,7.16,1.37,1.37,0,0,1-1.07,1.57A6.57,6.57,0,0,1,33.41,79.33Z" transform="translate(-8.56 -5.04)"/><path class="cls-1" d="M22.66,70.71a1.5,1.5,0,0,1-.61-.14c-5.84-2.88-6.5-7.81-6-10a1.39,1.39,0,0,1,1.57-1.08,8.72,8.72,0,0,0,7.16-2.38,1.38,1.38,0,1,1,2,1.91,11.7,11.7,0,0,1-7.92,3.34H18.7c.14,1.46,1,4,4.57,5.74a1.38,1.38,0,0,1-.61,2.62Z" transform="translate(-8.56 -5.04)"/></svg>
