<svg id="Layer_1" data-name="Layer 1" xmlns="http://www.w3.org/2000/svg" viewBox="0 0 90.92 85.42"><defs><style>.cls-1{fill:#fff;}</style></defs><path class="cls-1" d="M49.41,76a12.3,12.3,0,1,1,12.3-12.3A12.32,12.32,0,0,1,49.41,76Zm0-21.33a9,9,0,1,0,9,9A9,9,0,0,0,49.41,54.71Z" transform="translate(-4 -2.74)"/><path class="cls-1" d="M41,58.8H32.67a1.64,1.64,0,0,1,0-3.27H41a1.64,1.64,0,0,1,0,3.27Z" transform="translate(-4 -2.74)"/><path class="cls-1" d="M41,72H32.67a1.64,1.64,0,0,1,0-3.27H41A1.64,1.64,0,0,1,41,72Z" transform="translate(-4 -2.74)"/><path class="cls-1" d="M66.15,58.8H57.8a1.64,1.64,0,0,1,0-3.27h8.35a1.64,1.64,0,0,1,0,3.27Z" transform="translate(-4 -2.74)"/><path class="cls-1" d="M66.15,72H57.8a1.64,1.64,0,0,1,0-3.27h8.35a1.64,1.64,0,0,1,0,3.27Z" transform="translate(-4 -2.74)"/><path class="cls-1" d="M86.66,79.1a6.08,6.08,0,0,1-2.91-.76l-8.33-4.52A1.63,1.63,0,1,1,77,71l8.33,4.52a2.73,2.73,0,0,0,3.44-.66,2.57,2.57,0,0,0,.11-3.36,1.8,1.8,0,0,1-.41-1.27A1.73,1.73,0,0,1,89,69a6.75,6.75,0,0,0,0-10.55,1.65,1.65,0,0,1-.61-1.1,1.7,1.7,0,0,1,.35-1.21,2.61,2.61,0,0,0,0-3.48A2.7,2.7,0,0,0,85.31,52L77,56.53a1.63,1.63,0,1,1-1.56-2.87l8.33-4.52a5.94,5.94,0,0,1,7.48,1.41,5.82,5.82,0,0,1,.9,6.36,10,10,0,0,1,0,13.66,5.82,5.82,0,0,1-.9,6.36A6,6,0,0,1,86.66,79.1Z" transform="translate(-4 -2.74)"/><path class="cls-1" d="M12.16,79.1a6,6,0,0,1-4.57-2.17,5.82,5.82,0,0,1-.9-6.36,10,10,0,0,1,0-13.65,5.82,5.82,0,0,1,.9-6.37,5.94,5.94,0,0,1,7.48-1.41l8.33,4.52a1.63,1.63,0,1,1-1.56,2.87L13.51,52a2.7,2.7,0,0,0-3.44.66A2.55,2.55,0,0,0,10,56a1.83,1.83,0,0,1-.16,2.44A6.75,6.75,0,0,0,9.81,69a1.62,1.62,0,0,1,.25,2.3,2.63,2.63,0,0,0,0,3.49,2.71,2.71,0,0,0,3.44.66L21.84,71a1.63,1.63,0,1,1,1.56,2.87l-8.33,4.52A6.08,6.08,0,0,1,12.16,79.1Z" transform="translate(-4 -2.74)"/><path class="cls-1" d="M52.62,62.23H46.2a1.64,1.64,0,0,1,0-3.27h6.42a1.64,1.64,0,0,1,0,3.27Z" transform="translate(-4 -2.74)"/><path class="cls-1" d="M52.62,68.52H46.2a1.64,1.64,0,0,1,0-3.27h6.42a1.64,1.64,0,0,1,0,3.27Z" transform="translate(-4 -2.74)"/><path class="cls-1" d="M13.16,61.28a1.65,1.65,0,0,1-.8-.21L8,58.61a1.63,1.63,0,1,1,1.6-2.84L14,58.22a1.64,1.64,0,0,1-.8,3.06Z" transform="translate(-4 -2.74)"/><path class="cls-1" d="M8.79,71.93A1.64,1.64,0,0,1,8,68.87l4.37-2.46A1.63,1.63,0,0,1,14,69.26L9.59,71.72A1.65,1.65,0,0,1,8.79,71.93Z" transform="translate(-4 -2.74)"/><path class="cls-1" d="M85.66,61.28a1.66,1.66,0,0,1-1.43-.83,1.64,1.64,0,0,1,.63-2.23l4.36-2.45a1.63,1.63,0,1,1,1.61,2.84l-4.37,2.46A1.65,1.65,0,0,1,85.66,61.28Z" transform="translate(-4 -2.74)"/><path class="cls-1" d="M90,71.93a1.69,1.69,0,0,1-.81-.21l-4.36-2.46a1.63,1.63,0,1,1,1.6-2.85l4.37,2.46a1.64,1.64,0,0,1-.8,3.06Z" transform="translate(-4 -2.74)"/><path class="cls-1" d="M33.23,35.48a1.64,1.64,0,0,1-.69-3.12l7.58-3.49a1.64,1.64,0,0,1,1.37,3l-7.58,3.49A1.5,1.5,0,0,1,33.23,35.48Z" transform="translate(-4 -2.74)"/><path class="cls-1" d="M56.05,25A1.62,1.62,0,0,1,54.57,24a1.63,1.63,0,0,1,.8-2.17L63,18.35a1.64,1.64,0,1,1,1.37,3l-7.59,3.49A1.64,1.64,0,0,1,56.05,25Z" transform="translate(-4 -2.74)"/><path class="cls-1" d="M61.56,36.91a1.64,1.64,0,0,1-.68-3.12l7.58-3.5a1.63,1.63,0,1,1,1.36,3l-7.58,3.5A1.64,1.64,0,0,1,61.56,36.91Z" transform="translate(-4 -2.74)"/><path class="cls-1" d="M88.9,31.71l-.42,0L79,31.08a1.64,1.64,0,0,1-1.53-1.74,1.62,1.62,0,0,1,1.74-1.52l9.45.61a2.69,2.69,0,0,0,2.85-2,2.56,2.56,0,0,0-1.31-3.09A1.83,1.83,0,0,1,89.35,21a6.75,6.75,0,0,0-4.41-9.58A1.63,1.63,0,0,1,83.73,9.5l0-.21a2.55,2.55,0,0,0-1.51-3,2.69,2.69,0,0,0-3.39.83L73.2,14.72a1.63,1.63,0,1,1-2.61-2l5.67-7.59a5.93,5.93,0,0,1,7.38-1.85,5.8,5.8,0,0,1,3.48,5.4,10,10,0,0,1,5.72,12.39,5.84,5.84,0,0,1,1.85,6.16A5.94,5.94,0,0,1,88.9,31.71Z" transform="translate(-4 -2.74)"/><path class="cls-1" d="M11.06,51.81A1.65,1.65,0,0,1,9.5,50.68a10,10,0,0,1,0-6.18,5.82,5.82,0,0,1-1.85-6.15,6,6,0,0,1,6.21-4.42l9.45.62a1.63,1.63,0,0,1,1.53,1.73,1.66,1.66,0,0,1-1.74,1.53l-9.46-.61a2.67,2.67,0,0,0-2.84,2,2.57,2.57,0,0,0,1.31,3.1,1.86,1.86,0,0,1,.89,1,1.69,1.69,0,0,1,0,1.29,6.69,6.69,0,0,0-.39,5.08,1.65,1.65,0,0,1-1.06,2.06A1.77,1.77,0,0,1,11.06,51.81Z" transform="translate(-4 -2.74)"/><path class="cls-1" d="M47,32.93A1.62,1.62,0,0,1,45.47,32a1.63,1.63,0,0,1,.8-2.17l5.83-2.68a1.62,1.62,0,0,1,2.17.8,1.64,1.64,0,0,1-.8,2.17l-5.84,2.68A1.5,1.5,0,0,1,47,32.93Z" transform="translate(-4 -2.74)"/><path class="cls-1" d="M49.59,38.65a1.64,1.64,0,0,1-.69-3.12l5.83-2.69a1.64,1.64,0,1,1,1.37,3L50.27,38.5A1.64,1.64,0,0,1,49.59,38.65Z" transform="translate(-4 -2.74)"/><path class="cls-1" d="M16.55,45.91h-.13l-5-.4a1.64,1.64,0,1,1,.27-3.26l5,.4a1.64,1.64,0,0,1-.13,3.27Z" transform="translate(-4 -2.74)"/><path class="cls-1" d="M82.39,15.55A1.63,1.63,0,0,1,81.07,13L84,8.9a1.64,1.64,0,1,1,2.65,1.92l-2.94,4A1.6,1.6,0,0,1,82.39,15.55Z" transform="translate(-4 -2.74)"/><path class="cls-1" d="M90.82,23.39h-.14l-5-.4a1.65,1.65,0,0,1-1.5-1.76A1.63,1.63,0,0,1,86,19.73l5,.4a1.63,1.63,0,0,1-.13,3.26Z" transform="translate(-4 -2.74)"/><path class="cls-1" d="M57,43.39a2.09,2.09,0,0,1-.34,0,35,35,0,0,0-11.75-.46,1.6,1.6,0,0,1-1.2-.33,12.3,12.3,0,1,1,14.18.57A1.63,1.63,0,0,1,57,43.39Zm-7.57-4.07a38.55,38.55,0,0,1,7.21.69,9,9,0,0,0-9.22-15.4,9,9,0,0,0-2.22,15A37.62,37.62,0,0,1,49.41,39.32Z" transform="translate(-4 -2.74)"/><path class="cls-1" d="M49.41,88.16c-16.87,0-30.58-11-30.58-24.42S32.54,39.32,49.41,39.32,80,50.28,80,63.74,66.27,88.16,49.41,88.16Zm0-45.57c-15.06,0-27.32,9.49-27.32,21.15S34.35,84.89,49.41,84.89,76.73,75.4,76.73,63.74,64.47,42.59,49.41,42.59Z" transform="translate(-4 -2.74)"/><path class="cls-1" d="M27.42,50.57h-.11A1.62,1.62,0,0,1,26.16,50a19.92,19.92,0,0,1-2.75-4.35c-2.76-6-2.41-13,1-19.61A34.78,34.78,0,0,1,41,10.64C56.28,3.58,73.32,7.78,79,20c4.23,9.18,1.06,20.47-8.09,28.75a1.63,1.63,0,0,1-2.1.08,31.55,31.55,0,0,0-19.36-6.25c-8.06,0-15.67,2.75-20.88,7.55A1.69,1.69,0,0,1,27.42,50.57Zm28.8-40.11a33.36,33.36,0,0,0-13.89,3.15,31.44,31.44,0,0,0-15,13.89c-2.93,5.74-3.26,11.69-.92,16.75a17,17,0,0,0,1.3,2.31,34.81,34.81,0,0,1,21.73-7.24,35.2,35.2,0,0,1,20.24,6.1c7.32-7.19,9.81-16.51,6.34-24C72.76,14.36,65,10.46,56.22,10.46Z" transform="translate(-4 -2.74)"/></svg>
