<svg id="Layer_1" data-name="Layer 1" xmlns="http://www.w3.org/2000/svg" viewBox="0 0 90.32 67.39"><defs><style>.cls-1{fill:#fff;}</style></defs><path class="cls-1" d="M87.72,76.56H11.23a1.53,1.53,0,0,1-1.42-.93L4.44,63.34a1.57,1.57,0,0,1,.13-1.47,1.54,1.54,0,0,1,1.3-.7H93.09a1.56,1.56,0,0,1,1.42,2.17L89.15,75.63A1.55,1.55,0,0,1,87.72,76.56Zm-75.47-3.1H86.71l4-9.18H8.24Z" transform="translate(-4.32 -9.17)"/><path class="cls-1" d="M66.52,76.56H32.43a1.54,1.54,0,0,1-1.52-1.25L28.52,63a1.51,1.51,0,0,1,.33-1.28A1.53,1.53,0,0,1,30,61.17H68.91A1.56,1.56,0,0,1,70.44,63L68.05,75.31A1.55,1.55,0,0,1,66.52,76.56Zm-32.81-3.1H65.24L67,64.28H31.93Z" transform="translate(-4.32 -9.17)"/><path class="cls-1" d="M87,64.28H11.92a1.55,1.55,0,0,1-1.47-1.07,41.11,41.11,0,1,1,78.06,0A1.56,1.56,0,0,1,87,64.28Zm-74-3.11H85.89a38,38,0,1,0-72.83,0Z" transform="translate(-4.32 -9.17)"/><path class="cls-1" d="M12.25,38.43a1.57,1.57,0,0,1-1.2-.57,1.53,1.53,0,0,1-.26-1.51A41,41,0,0,1,17.38,24.6a1.49,1.49,0,0,1,.88-.54A137.75,137.75,0,0,0,55.89,10a1.56,1.56,0,0,1,1-.18,40.84,40.84,0,0,1,12.75,4.63,1.51,1.51,0,0,1,.78,1.29,1.54,1.54,0,0,1-.69,1.35C53.33,28,34.05,35.18,12.48,38.41ZM19.47,27a37.74,37.74,0,0,0-4.76,7.94C33.78,31.73,51,25.36,65.83,16a38.3,38.3,0,0,0-8.92-3A140.61,140.61,0,0,1,19.47,27Z" transform="translate(-4.32 -9.17)"/><path class="cls-1" d="M10.57,58.88A1.55,1.55,0,0,1,9,57.61a41.24,41.24,0,0,1-.68-7.33c0-.93,0-1.86.11-2.78a1.55,1.55,0,0,1,1.38-1.44c25.87-2.83,48.41-11.14,67-24.68a1.57,1.57,0,0,1,2,.17,41.62,41.62,0,0,1,6.27,8.3,1.56,1.56,0,0,1-.41,2c-13.91,10.56-38,23.82-74,27ZM11.5,49c0,.43,0,.85,0,1.28a36.65,36.65,0,0,0,.4,5.37C45.38,52.39,68.2,40.24,81.75,30.22a37.5,37.5,0,0,0-4.18-5.53C59.07,37.86,36.86,46,11.5,49Z" transform="translate(-4.32 -9.17)"/><path class="cls-1" d="M71.32,64.28H41.38A1.56,1.56,0,0,1,41,61.22,129.81,129.81,0,0,0,86.94,39.53a1.56,1.56,0,0,1,2.45.87,41.17,41.17,0,0,1,1.2,9.88c0,.61,0,1.2-.06,1.79l0,.41a1.55,1.55,0,0,1-.65,1.19A127,127,0,0,1,72,64.12,1.58,1.58,0,0,1,71.32,64.28ZM52.07,61.17H71a123.41,123.41,0,0,0,16.47-9.62c0-.42,0-.84,0-1.27a38.21,38.21,0,0,0-.61-6.83A130.29,130.29,0,0,1,52.07,61.17Z" transform="translate(-4.32 -9.17)"/></svg>
