<svg id="Layer_1" data-name="Layer 1" xmlns="http://www.w3.org/2000/svg" viewBox="0 0 81.32 65.56"><defs><style>.cls-1{fill:#fff;}</style></defs><path class="cls-1" d="M49.48,73.33a1.37,1.37,0,0,1-.49-.09C23.14,63.36,13.74,51.13,10.4,42.61a18.13,18.13,0,0,1-1.48-5.67,10.6,10.6,0,0,1-.1-1.74c0-11.28,10.57-20.5,23.57-20.5a25.33,25.33,0,0,1,17.09,6.38A25.3,25.3,0,0,1,66.56,14.7c13,0,23.57,9.22,23.57,20.55A10.11,10.11,0,0,1,90,37a18.39,18.39,0,0,1-1.48,5.64C85.21,51.14,75.8,63.37,50,73.24A1.32,1.32,0,0,1,49.48,73.33ZM32.39,17.42c-11.49,0-20.85,8-20.85,17.83a9.68,9.68,0,0,0,.08,1.4,15.57,15.57,0,0,0,1.29,4.91c2.58,6.58,10.72,19,36.57,29,25.86-10,34-22.39,36.54-28.91a15.71,15.71,0,0,0,1.31-4.91,10.09,10.09,0,0,0,.08-1.38c0-9.89-9.35-17.89-20.85-17.89a22.31,22.31,0,0,0-16.1,6.51,1.35,1.35,0,0,1-1,.42,1.38,1.38,0,0,1-1-.42A22.31,22.31,0,0,0,32.39,17.42Z" transform="translate(-8.81 -14.7)"/><path class="cls-1" d="M49.48,80.25a1.37,1.37,0,0,1-.49-.09C23.14,70.29,13.74,58.06,10.4,49.54a18.27,18.27,0,0,1-1.48-5.67l-.1-8.6a1.36,1.36,0,1,1,2.72,0l.09,8.48a15.62,15.62,0,0,0,1.28,4.77c2.58,6.57,10.72,18.95,36.57,28.94,25.86-10,34-22.38,36.54-28.91a15.73,15.73,0,0,0,1.31-4.9l.08-8.39a1.3,1.3,0,0,1,1.38-1.34,1.35,1.35,0,0,1,1.34,1.37L90,43.76a18.37,18.37,0,0,1-1.5,5.81C85.23,58,75.83,70.28,50,80.16A1.32,1.32,0,0,1,49.48,80.25Z" transform="translate(-8.81 -14.7)"/><path class="cls-1" d="M49.48,80.25a1.36,1.36,0,0,1-1.37-1.36V72a1.37,1.37,0,0,1,2.73,0v6.93A1.36,1.36,0,0,1,49.48,80.25Z" transform="translate(-8.81 -14.7)"/><path class="cls-1" d="M82.83,51.24H16.12A1.34,1.34,0,0,1,15,50.7a34,34,0,0,1-4.64-8.09,18.13,18.13,0,0,1-1.48-5.67,11.28,11.28,0,0,1-.1-1.71,17.93,17.93,0,0,1,.45-4,1.36,1.36,0,0,1,1.32-1.06H88.36a1.36,1.36,0,0,1,1.33,1.06,18.71,18.71,0,0,1,.44,4A10.11,10.11,0,0,1,90,37a18.18,18.18,0,0,1-1.49,5.66,34,34,0,0,1-4.62,8.06A1.37,1.37,0,0,1,82.83,51.24Zm-66-2.72H82.15A30.61,30.61,0,0,0,86,41.6a15.71,15.71,0,0,0,1.31-4.91,10.09,10.09,0,0,0,.08-1.38,15.63,15.63,0,0,0-.18-2.39H11.72a15.14,15.14,0,0,0-.18,2.33,9.68,9.68,0,0,0,.08,1.4,15.57,15.57,0,0,0,1.29,4.91A31.44,31.44,0,0,0,16.8,48.52Z" transform="translate(-8.81 -14.7)"/></svg>
