<svg id="Layer_1" data-name="Layer 1" xmlns="http://www.w3.org/2000/svg" viewBox="0 0 86.17 80.14"><defs><style>.cls-1{fill:#fff;}</style></defs><path class="cls-1" d="M35.77,47.15a8.58,8.58,0,1,1,6.06-2.51A8.54,8.54,0,0,1,35.77,47.15Zm0-14.13a5.56,5.56,0,0,0-3.93,9.49,5.7,5.7,0,0,0,7.86,0A5.56,5.56,0,0,0,35.77,33Z" transform="translate(-6.36 -9.17)"/><path class="cls-1" d="M39,88.51H32.51a3.08,3.08,0,0,1-3.07-3.23l1-19.14a1.51,1.51,0,1,1,3,.16l-1,19.14,6.59,0-1-19.19a1.51,1.51,0,1,1,3-.16l1,19.14A3.06,3.06,0,0,1,39,88.51Z" transform="translate(-6.36 -9.17)"/><path class="cls-1" d="M46.94,57.67a8.05,8.05,0,0,1-2.11-.28,8.52,8.52,0,0,1-5.77-5.14l-2.5-6.42a1.5,1.5,0,0,1,0-1.19,1.54,1.54,0,0,1,.89-.79,5.43,5.43,0,0,0,2.2-1.34,5.49,5.49,0,0,0,1.37-2.26,1.5,1.5,0,0,1,2-1l6.49,2.59a8.46,8.46,0,0,1,5,5.35,7.86,7.86,0,0,1-.9,6.73,8.46,8.46,0,0,1-1.11,1.36c-.2.2-.42.4-.64.58A7.73,7.73,0,0,1,46.94,57.67Zm-7-11.58,2,5.07a5.48,5.48,0,0,0,3.73,3.31,4.82,4.82,0,0,0,4.36-.9,3.7,3.7,0,0,0,.42-.38,5.53,5.53,0,0,0,.72-.88,4.79,4.79,0,0,0,.54-4.16,5.55,5.55,0,0,0-3.2-3.46l-5.12-2a8.77,8.77,0,0,1-1.49,2A8,8,0,0,1,39.9,46.09Z" transform="translate(-6.36 -9.17)"/><path class="cls-1" d="M42.48,37.89a1.51,1.51,0,0,1-.65-.15,1.54,1.54,0,0,1-.79-.89,5.43,5.43,0,0,0-1.34-2.2,5.49,5.49,0,0,0-2.26-1.37,1.51,1.51,0,0,1-.95-2l2.59-6.49a8.48,8.48,0,0,1,5.35-5,8,8,0,0,1,8.08,2c.22.21.41.43.6.65a7.86,7.86,0,0,1,1.47,7,8.52,8.52,0,0,1-5.14,5.77L43,37.79A1.66,1.66,0,0,1,42.48,37.89ZM39.84,31a8.56,8.56,0,0,1,2,1.49,8,8,0,0,1,1.45,1.93l5.07-2a5.5,5.5,0,0,0,3.31-3.73,4.84,4.84,0,0,0-.89-4.36,5.14,5.14,0,0,0-.38-.42,5,5,0,0,0-.89-.72,4.75,4.75,0,0,0-4.16-.54,5.55,5.55,0,0,0-3.46,3.2Z" transform="translate(-6.36 -9.17)"/><path class="cls-1" d="M29,38a1.59,1.59,0,0,1-.56-.11L22,35.27a8.47,8.47,0,0,1-5-5.36,7.86,7.86,0,0,1,.9-6.73A9.41,9.41,0,0,1,19,21.83c.21-.21.43-.4.65-.59a7.83,7.83,0,0,1,7-1.47,8.52,8.52,0,0,1,5.77,5.14L35,31.32a1.49,1.49,0,0,1,0,1.19,1.51,1.51,0,0,1-.89.79,5.56,5.56,0,0,0-2.2,1.35,5.43,5.43,0,0,0-1.37,2.26A1.52,1.52,0,0,1,29,38ZM24.62,22.51a4.8,4.8,0,0,0-3,1.07c-.14.12-.29.25-.43.39a6,6,0,0,0-.71.87A4.81,4.81,0,0,0,19.9,29a5.57,5.57,0,0,0,3.2,3.46l5.12,2a8.83,8.83,0,0,1,1.49-2,8.23,8.23,0,0,1,1.93-1.44l-2-5.07a5.44,5.44,0,0,0-5.05-3.49Z" transform="translate(-6.36 -9.17)"/><path class="cls-1" d="M24.67,57.71a7.81,7.81,0,0,1-4.29-1.28A9.49,9.49,0,0,1,19,55.33c-.21-.22-.4-.43-.59-.66a7.86,7.86,0,0,1-1.47-7,8.52,8.52,0,0,1,5.14-5.77l6.42-2.5a1.54,1.54,0,0,1,1.19,0,1.51,1.51,0,0,1,.78.9,5.56,5.56,0,0,0,1.35,2.2,5.36,5.36,0,0,0,2.26,1.36,1.53,1.53,0,0,1,.91.8,1.48,1.48,0,0,1,0,1.2l-2.59,6.49a8.46,8.46,0,0,1-5.35,5A8.27,8.27,0,0,1,24.67,57.71Zm3.59-15-5.07,2a5.46,5.46,0,0,0-3.31,3.73,4.85,4.85,0,0,0,.89,4.36,3.88,3.88,0,0,0,.39.42,5.94,5.94,0,0,0,.87.72,4.82,4.82,0,0,0,4.17.54,5.55,5.55,0,0,0,3.46-3.2l2-5.12a8.7,8.7,0,0,1-2-1.49A8.49,8.49,0,0,1,28.26,42.71Z" transform="translate(-6.36 -9.17)"/><path class="cls-1" d="M35.77,62.26a8.19,8.19,0,0,1-.87,0,8.11,8.11,0,0,1-7.17-7.72,1.46,1.46,0,0,1,.5-1.21,5.53,5.53,0,0,0,1.43-2L32,45.42a1.36,1.36,0,0,1,.07-.66,1.48,1.48,0,0,1,1.88-.94,5.41,5.41,0,0,0,3.64,0,1.59,1.59,0,0,1,1.88,1,1.55,1.55,0,0,1,.07.35l2.34,6a5.41,5.41,0,0,0,1.47,2.1,1.51,1.51,0,0,1,.51,1.21,8.1,8.1,0,0,1-6.34,7.61A8.42,8.42,0,0,1,35.77,62.26Zm-5-7.3a5.06,5.06,0,0,0,4.38,4.26,6.08,6.08,0,0,0,1.7-.09A5,5,0,0,0,40.76,55a8.61,8.61,0,0,1-1.7-2.71l-2-5.2a8.12,8.12,0,0,1-2.46,0l-2.12,5.29A8.13,8.13,0,0,1,30.82,55Z" transform="translate(-6.36 -9.17)"/><path class="cls-1" d="M38.53,46.58a1.51,1.51,0,0,1-.6-2.89l.28-.13a1.51,1.51,0,1,1,1.34,2.7l-.19.09-.24.11A1.59,1.59,0,0,1,38.53,46.58Z" transform="translate(-6.36 -9.17)"/><path class="cls-1" d="M33.13,46.63a1.55,1.55,0,0,1-.56-.11l-.31-.13L32,46.28a1.51,1.51,0,1,1,1.32-2.71l.18.08.16.07a1.5,1.5,0,0,1,.84,2A1.52,1.52,0,0,1,33.13,46.63Z" transform="translate(-6.36 -9.17)"/><path class="cls-1" d="M51.6,46.62a1.49,1.49,0,0,1-1.12-.5,5.45,5.45,0,0,0-2-1.43l-5.83-2.33a1.36,1.36,0,0,1-.66-.07A1.51,1.51,0,0,1,41,40.41a5.79,5.79,0,0,0,.32-1.83A5.5,5.5,0,0,0,41,36.76a1.57,1.57,0,0,1,1-1.87,1.53,1.53,0,0,1,.36-.07l6-2.34A5.33,5.33,0,0,0,50.45,31a1.51,1.51,0,0,1,1.22-.5,8.1,8.1,0,0,1,7.6,6.34,8.8,8.8,0,0,1,.14,2.61,8.11,8.11,0,0,1-7.72,7.17Zm-7.34-6.85,5.29,2.12a8.28,8.28,0,0,1,2.61,1.64,5.06,5.06,0,0,0,4.25-4.38,5.44,5.44,0,0,0,0-.57,5.22,5.22,0,0,0-.12-1.13,5.05,5.05,0,0,0-4.17-3.87,8.36,8.36,0,0,1-2.71,1.71l-5.19,2a8.93,8.93,0,0,1,.09,1.27A7.84,7.84,0,0,1,44.26,39.77Z" transform="translate(-6.36 -9.17)"/><path class="cls-1" d="M42.11,43.17a1.43,1.43,0,0,1-.66-.16,1.51,1.51,0,0,1-.69-2c.06-.12.1-.23.15-.35a1.52,1.52,0,0,1,2-.83,1.5,1.5,0,0,1,.94,1.4,1.65,1.65,0,0,1-.11.57c-.08.19-.16.36-.24.54A1.51,1.51,0,0,1,42.11,43.17Z" transform="translate(-6.36 -9.17)"/><path class="cls-1" d="M42.26,37.33a1.5,1.5,0,0,1-1.38-.91l-.13-.29a1.51,1.51,0,0,1,2.71-1.32c.09.19.14.31.19.43a1.5,1.5,0,0,1-.8,2A1.52,1.52,0,0,1,42.26,37.33Z" transform="translate(-6.36 -9.17)"/><path class="cls-1" d="M32.67,33.75a1.52,1.52,0,0,1-1.36-.84,1.59,1.59,0,0,1-.15-.67A1.51,1.51,0,0,1,32,30.89l.43-.2a1.51,1.51,0,0,1,1.17,2.79l-.27.12A1.55,1.55,0,0,1,32.67,33.75Z" transform="translate(-6.36 -9.17)"/><path class="cls-1" d="M33.46,33.42a1.51,1.51,0,0,1-1.42-1,1.46,1.46,0,0,1-.09-.54L29.67,26a5.52,5.52,0,0,0-1.47-2.11,1.47,1.47,0,0,1-.51-1.21A8.12,8.12,0,0,1,34,15.07a8.83,8.83,0,0,1,2.61-.13,8.1,8.1,0,0,1,7.17,7.72,1.48,1.48,0,0,1-.5,1.21,5.45,5.45,0,0,0-1.43,2l-2.32,5.83a1.52,1.52,0,0,1-1.94,1.61,5.41,5.41,0,0,0-3.66,0A1.8,1.8,0,0,1,33.46,33.42ZM30.78,22.2a8.5,8.5,0,0,1,1.7,2.71l2,5.19a8.45,8.45,0,0,1,2.46,0l2.12-5.3a8.35,8.35,0,0,1,1.64-2.6,5,5,0,0,0-4.38-4.25,5.41,5.41,0,0,0-1.7.09A5,5,0,0,0,30.78,22.2Z" transform="translate(-6.36 -9.17)"/><path class="cls-1" d="M38.85,33.74a1.55,1.55,0,0,1-.66-.15l-.35-.16A1.51,1.51,0,1,1,39,30.64a4.41,4.41,0,0,1,.54.24,1.49,1.49,0,0,1,.85,1.35,1.55,1.55,0,0,1-.15.66A1.52,1.52,0,0,1,38.85,33.74Z" transform="translate(-6.36 -9.17)"/><path class="cls-1" d="M29.23,37.44a1.44,1.44,0,0,1-.57-.11,1.5,1.5,0,0,1-.83-2c.05-.13.11-.26.17-.39a.61.61,0,0,1,.07-.14,1.51,1.51,0,0,1,2.71,1.31l-.06.14-.09.22A1.52,1.52,0,0,1,29.23,37.44Z" transform="translate(-6.36 -9.17)"/><path class="cls-1" d="M20,46.66a8.14,8.14,0,0,1-7.7-6.34,9.25,9.25,0,0,1-.17-1.74,8.51,8.51,0,0,1,0-.88,8.11,8.11,0,0,1,7.72-7.16,1.44,1.44,0,0,1,1.21.49,5.36,5.36,0,0,0,2,1.44l5.83,2.32a1.52,1.52,0,0,1,.66.08,1.49,1.49,0,0,1,.94,1.87,5.84,5.84,0,0,0-.32,1.84,5.48,5.48,0,0,0,.32,1.81,1.57,1.57,0,0,1-1,1.87,1.47,1.47,0,0,1-.35.08l-6,2.34a5.31,5.31,0,0,0-2.1,1.47A1.5,1.5,0,0,1,20,46.66Zm-.57-13A5.05,5.05,0,0,0,15.13,38a5.44,5.44,0,0,0,0,.57,5.35,5.35,0,0,0,.12,1.13,5.05,5.05,0,0,0,4.17,3.86,8.33,8.33,0,0,1,2.71-1.7l5.19-2a9.15,9.15,0,0,1-.09-1.27,8.06,8.06,0,0,1,.08-1.2L22,35.27A8.19,8.19,0,0,1,19.39,33.63Z" transform="translate(-6.36 -9.17)"/><path class="cls-1" d="M29.44,43.19a1.51,1.51,0,0,1-1.36-.84c-.07-.14-.13-.28-.19-.41a1.61,1.61,0,0,1-.12-.6,1.51,1.51,0,0,1,2.89-.6l.13.28a1.51,1.51,0,0,1-.69,2A1.58,1.58,0,0,1,29.44,43.19Z" transform="translate(-6.36 -9.17)"/><path class="cls-1" d="M46,89.31a3,3,0,0,1-1.31-.3L40,86.77A1.51,1.51,0,1,1,41.24,84L46,86.29l7.35-17.76a1.51,1.51,0,1,1,2.79,1.14L48.84,87.41a3.09,3.09,0,0,1-1.73,1.69A3,3,0,0,1,46,89.31Z" transform="translate(-6.36 -9.17)"/><path class="cls-1" d="M40.3,81.31a1.54,1.54,0,0,1-.72-.18,1.51,1.51,0,0,1-.61-2l7.54-14a1.51,1.51,0,0,1,2.65,1.43l-7.53,14A1.53,1.53,0,0,1,40.3,81.31Z" transform="translate(-6.36 -9.17)"/><path class="cls-1" d="M68.41,65.27A8.28,8.28,0,0,1,60.8,60a1.51,1.51,0,1,1,2.81-1.11,5.14,5.14,0,0,0,5.91,3.26,3.68,3.68,0,0,0,.54-.16,5.41,5.41,0,0,0,1-.49,4.82,4.82,0,0,0,2.27-3.53A5.54,5.54,0,0,0,72,53.43l-4.76-5.11a1.51,1.51,0,1,1,2.2-2.06l4.76,5.12a8.49,8.49,0,0,1,2.2,7A7.88,7.88,0,0,1,72.65,64a8.09,8.09,0,0,1-1.57.75c-.28.1-.56.18-.84.25A7.17,7.17,0,0,1,68.41,65.27Z" transform="translate(-6.36 -9.17)"/><path class="cls-1" d="M77.47,45.39l-.59,0L70,44.87A1.45,1.45,0,0,1,69,44.33a1.54,1.54,0,0,1-.33-1.15,5.42,5.42,0,0,0-.28-2.56,5.53,5.53,0,0,0-1.45-2.21,1.48,1.48,0,0,1-.49-1.1,1.55,1.55,0,0,1,.48-1.11L72,31.44a8.47,8.47,0,0,1,7-2.19,7.88,7.88,0,0,1,5.69,3.69,8.46,8.46,0,0,1,.75,1.58,8.16,8.16,0,0,1,.26.84,7.86,7.86,0,0,1-1.68,7A8.55,8.55,0,0,1,77.47,45.39ZM71.67,42l5.42.39a5.55,5.55,0,0,0,4.59-2,4.88,4.88,0,0,0,1.06-4.33,5.6,5.6,0,0,0-.17-.54,5.41,5.41,0,0,0-.49-1,4.81,4.81,0,0,0-3.53-2.27,5.58,5.58,0,0,0-4.5,1.41l-4,3.76a8.68,8.68,0,0,1,1.16,2.19A8.48,8.48,0,0,1,71.67,42Z" transform="translate(-6.36 -9.17)"/><path class="cls-1" d="M77.26,57.19a8.59,8.59,0,0,1-3.2-.62,1.53,1.53,0,0,1-.89-1,5.45,5.45,0,0,0-1.23-2.17l-4.27-4.59a1.43,1.43,0,0,1-.56-.35,1.49,1.49,0,0,1,0-2.13,5.5,5.5,0,0,0,1-1.49,5.35,5.35,0,0,0,.49-1.78,1.59,1.59,0,0,1,1.68-1.28,2,2,0,0,1,.35.09l6.44.46a5.4,5.4,0,0,0,2.53-.43,1.51,1.51,0,0,1,1.31.06,8.12,8.12,0,0,1,4.17,9,9.16,9.16,0,0,1-.58,1.64,8,8,0,0,1-.42.77A7.92,7.92,0,0,1,77.26,57.19ZM75.8,54a5,5,0,0,0,5.72-2.13c.09-.16.19-.33.27-.51a5.83,5.83,0,0,0,.38-1.06A5,5,0,0,0,80.05,45a8.77,8.77,0,0,1-3.17.38L71.31,45a8.55,8.55,0,0,1-.45,1.19,8.19,8.19,0,0,1-.59,1l3.88,4.18A8.4,8.4,0,0,1,75.8,54Z" transform="translate(-6.36 -9.17)"/><path class="cls-1" d="M67.53,49.5a1.51,1.51,0,0,1-1-2.68l.18-.15.12-.11a1.5,1.5,0,1,1,2,2.22,2.09,2.09,0,0,1-.22.2l-.22.19A1.52,1.52,0,0,1,67.53,49.5Z" transform="translate(-6.36 -9.17)"/><path class="cls-1" d="M70.16,44.28a1.51,1.51,0,0,1-1.51-1.57v-.29a1.49,1.49,0,0,1,1.48-1.53,1.58,1.58,0,0,1,1.53,1.48v.11c0,.12,0,.24,0,.36A1.5,1.5,0,0,1,70.16,44.28Z" transform="translate(-6.36 -9.17)"/><path class="cls-1" d="M67.91,38.82a1.52,1.52,0,0,1-1-2.62L72,31.44a8.49,8.49,0,0,1,2.6-1.64,5.07,5.07,0,0,0-2.14-5.72,4.82,4.82,0,0,0-.5-.27,6.21,6.21,0,0,0-1.07-.38A4.81,4.81,0,0,0,67.2,24a1.51,1.51,0,1,1-1.59-2.56,7.78,7.78,0,0,1,6-1,8.73,8.73,0,0,1,1.65.58c.26.13.52.27.77.42a8.11,8.11,0,0,1,3.17,10,1.53,1.53,0,0,1-1,.89,5.43,5.43,0,0,0-2.17,1.22l-5.11,4.76A1.51,1.51,0,0,1,67.91,38.82Z" transform="translate(-6.36 -9.17)"/><path class="cls-1" d="M35.77,68A29.41,29.41,0,1,1,65.18,38.58,29.45,29.45,0,0,1,35.77,68Zm0-55.8A26.39,26.39,0,1,0,62.16,38.58,26.42,26.42,0,0,0,35.77,12.19Z" transform="translate(-6.36 -9.17)"/><path class="cls-1" d="M66.61,50.14a1.52,1.52,0,0,1-1.31-.77,1.5,1.5,0,0,1,.57-2,5.55,5.55,0,0,0,2.47-6.7,5.46,5.46,0,0,0-1.45-2.21,1.51,1.51,0,0,1,2-2.21,8.59,8.59,0,0,1-1.58,13.74A1.56,1.56,0,0,1,66.61,50.14Z" transform="translate(-6.36 -9.17)"/><path class="cls-1" d="M63.06,71.89a29.24,29.24,0,0,1-12.54-2.82,30.27,30.27,0,0,1-5.44-3.35,1.51,1.51,0,0,1-.26-2.11,1.49,1.49,0,0,1,2.11-.27A26.39,26.39,0,0,0,88,33.61,26.42,26.42,0,0,0,62.64,16.1a1.51,1.51,0,0,1-.06-3A28.8,28.8,0,0,1,75.7,15.91a29.4,29.4,0,0,1-12.64,56Z" transform="translate(-6.36 -9.17)"/></svg>
