<?xml version="1.0" encoding="utf-8"?>
<!-- Generator: Adobe Illustrator 24.3.0, SVG Export Plug-In . SVG Version: 6.00 Build 0)  -->
<svg version="1.1" id="Calque_1" xmlns="http://www.w3.org/2000/svg" xmlns:xlink="http://www.w3.org/1999/xlink" x="0px" y="0px"
	 viewBox="0 0 251.9 266.4" style="enable-background:new 0 0 251.9 266.4;" xml:space="preserve">
<style type="text/css">
	.st0{display:none;}
	.st1{fill:#CE061F;stroke:#FFFFFF;stroke-width:6;stroke-miterlimit:10;}
	.st2{fill-rule:evenodd;clip-rule:evenodd;fill:#FFFFFF;}
</style>
<rect x="0.9" y="-1.3" class="st0" width="253.1" height="269"/>
<g>
	<path class="st1" d="M99.3,200.7c-6.4,1.6-24.6,6.1-41.6,6.1v-160h139.1v159.9c-11.1-7.6-31.5-12.7-54.8-12.7
		S106.7,198.8,99.3,200.7"/>
	<path class="st2" d="M67.7,182.8v-3.3h3.1v-16.8h-3.2V159h11.8l6.1,14.2l6.4-14.2h8.9v20.4h82.9v3.3H91.7v-3.3h3.3V164l-8.5,18.7
		h-3.2l-8.2-18.9v15.8h2.7v3.3H67.7z M140.2,158.6h2.2v6.3h-3.2c0.2-2.1-2.6-3.7-4.4-3.7c-3,0-5.3,2.9-5.3,6.5
		c0,3.6,2.4,6.5,5.3,6.5c2.5,0,4.4-1.8,5.9-4.4l2.8,1.9c-1.5,3.4-5.1,5.3-9.1,5.3c-5.3,0-9.6-4.2-9.6-9.3s4.3-9.4,9.6-9.4
		c1.4,0,2.9,0.2,4.8,1.3L140.2,158.6L140.2,158.6z M163.6,167.5c0-5.2,4.5-9.5,10-9.5s10,4.3,10,9.5s-4.5,9.6-10,9.6
		S163.6,172.8,163.6,167.5z M168,167.5c0-3.6,2.5-6.6,5.6-6.6s5.6,3,5.6,6.6c0,3.6-2.5,6.6-5.6,6.6S168,171.2,168,167.5z M147.6,159
		v2.6h2.6l-4.7,12.2h-1.9v2.4h8.5V174h-2.5l1.6-3.5h4.9l1.5,3.4h-2.4v2.4h8.8v-2.5H162l-5.6-14.8L147.6,159L147.6,159z M155.5,168.1
		H152l1.8-4.2L155.5,168.1z M108.1,159v2.6h2.6l-4.7,12.2h-1.9v2.4h8.5V174h-2.5l1.6-3.5h5l1.5,3.4h-2.3v2.4h8.8v-2.5h-2.1L117,159
		L108.1,159L108.1,159z M116,168.1h-3.4l1.7-4.2L116,168.1z"/>
	<path class="st2" d="M99.6,152.3c-5.3-6.4-8.4-14.4-8.4-23c0-21.1,18.6-38.1,41.6-38.1s41.6,17.1,41.6,38.1
		c0,8.6-3.1,16.5-8.4,22.9h3.4c4.3-6.8,6.8-14.7,6.8-23.1c0-25.5-22.5-46.1-50.3-46.1s-50.2,20.6-50.2,46.1c0,8.4,2.5,16.3,6.8,23.1
		L99.6,152.3L99.6,152.3z M148.5,111.6c0,0-5.6-6.5-11.1-0.9c0,0-5.8-6.1-9.4,3.8c0,0-2.9,9.9,5.7,14c0,0,2.1,0.6,3.3-1.2
		c0,0,0.6,2.8-3,2.2c0,0-8.7-1.2-7.6-12.8c-0.1,0-18.9-5.6-25.7,10.3c0,0-3,1-2.3-3.3c-1.1,0.6-1.8,1.6-1.8,2.7
		c0,1.6,1.4,2.9,3.4,3.3c0,0-0.8,4.6,1.8,7.5c0,0,4.1,4.5,6.9,6.9c0.1,0.1,4.2,3.8,3.8,6.2c0,0-0.6,1.5,1.8,1.1c0-0.1,5.4,0,5.4,0
		s1.4,0.2,1.6-2.7c-0.1,0,1.1,1.5,0,2.6h4.3c0,0,2.6-0.7,0.2-3.2c0,0-0.6-0.2-0.2-1c-0.1,0,0.6-1,0.6-2.2c0,0,2.4,7.9,5.8,8.7
		c0.1,0,4.2,0.9,4-3.7c-0.1,0-1.6-5.1,1.8-8.1c0.1,0,2.3-3.1,3.5-1.1c0,0,5.8,10.4,9.6-1.4c0,0,0.5-2.5-2.2-4.1c0,0-3.4-1.7-4-2.7
		c0,0,2-4.6,4.7-3.8c0,0,2.6,0.9,3.2,0.1c-0.1,0,1-2.9,1-2.9s19.7-2.7,6.9-18.8c-0.1,0,0,2.4-0.7,3.1c0,0,3.8,5.1,0.3,7.7
		C160.1,118.3,156.7,122.3,148.5,111.6 M145.4,111.7c0,0-2.7-2.5-3.1,1.2C142.3,112.9,143.9,111.2,145.4,111.7z M150.2,125.8
		c-0.2-0.5-0.1-1,0.3-1.1c0.4-0.1,0.9,0.3,1.1,0.9c0.2,0.5,0,1-0.3,1C150.9,126.7,150.4,126.3,150.2,125.8z M119.9,139.2
		c0,0,1.9,0.7,1.6,5c0,0-0.8,1.3-0.6,3.2c0,0.1-0.3-0.1-1-1.4C119.9,146.1,119.9,139.2,119.9,139.2 M146.9,116.3
		c-0.6-0.9-0.4-1.8,0.4-2c0.8-0.2,2,0.5,2.5,1.4c0.6,1,0.4,1.9-0.4,2C148.6,118,147.5,117.3,146.9,116.3z"/>
</g>
</svg>
