<svg width="140" height="160" viewBox="0 0 140 160" fill="none" xmlns="http://www.w3.org/2000/svg">
<g clip-path="url(#clip0_185_264)">
<path d="M41.56 153.85C35.18 155.47 16.93 160 0 160V0H139.11V159.95C128 152.37 107.59 147.28 84.27 147.28C60.95 147.28 48.98 151.98 41.56 153.86" fill="#CE061F"/>
<path fill-rule="evenodd" clip-rule="evenodd" d="M10.0402 135.95V132.64H13.1002V115.85H9.91016V112.22H21.6702L27.7202 126.39L34.1602 112.22H43.0702V132.64H125.98V135.95H34.0302V132.64H37.3702V117.13L28.8302 135.82H25.6102L17.4402 116.89V132.64H20.1702V135.95H10.0402ZM82.4702 111.8H84.6602V118.13H81.4501C81.6801 116.07 78.8202 114.46 77.0102 114.46C74.0202 114.46 71.6602 117.36 71.6602 120.93C71.6602 124.5 74.0202 127.39 77.0102 127.39C79.5402 127.39 81.4502 125.62 82.8602 123L85.6502 124.93C84.1902 128.3 80.5602 130.27 76.5502 130.27C71.2102 130.27 66.9202 126.07 66.9202 120.93C66.9202 115.79 71.2102 111.57 76.5502 111.57C77.9202 111.57 79.4502 111.77 81.3202 112.87L82.4902 111.8H82.4702ZM105.89 120.71C105.89 115.46 110.36 111.17 115.87 111.17C121.38 111.17 125.86 115.46 125.86 120.71C125.86 125.96 121.39 130.26 115.87 130.26C110.35 130.26 105.89 125.99 105.89 120.71ZM110.25 120.71C110.25 117.12 112.78 114.14 115.84 114.14C118.9 114.14 121.43 117.12 121.43 120.71C121.43 124.3 118.91 127.31 115.84 127.31C112.77 127.31 110.25 124.37 110.25 120.71ZM89.8602 112.22V114.83H92.4501L87.7502 127.08H85.8902V129.47H94.4002V127.2H91.9302L93.5502 123.68H98.5002L100 127.08H97.6202V129.47H106.44V126.96H104.32L98.7502 112.21H89.8602V112.22ZM97.7502 121.28H94.3002L96.0502 117.13L97.7502 121.28ZM50.3802 112.22V114.83H52.9702L48.2702 127.08H46.4002V129.47H54.9502V127.2H52.4802L54.1002 123.68H59.0502L60.5202 127.08H58.1802V129.47H66.9502V126.96H64.8502L59.2802 112.21H50.3802V112.22ZM58.2802 121.28H54.8302L56.5602 117.13L58.2802 121.28Z" fill="white"/>
<path fill-rule="evenodd" clip-rule="evenodd" d="M41.9002 105.46C36.6202 99.0599 33.4902 91.0999 33.4902 82.4699C33.4902 61.3999 52.1102 44.3299 75.0802 44.3299C98.0502 44.3299 116.67 61.3999 116.67 82.4699C116.67 91.0699 113.57 98.9899 108.32 105.38H111.67C115.98 98.5799 118.42 90.6999 118.42 82.2799C118.42 56.8199 95.9302 36.1899 68.1602 36.1899C40.3902 36.1899 17.9102 56.8199 17.9102 82.2799C17.9102 90.6999 20.3702 98.6099 24.6802 105.4L41.9002 105.45V105.46ZM90.7602 64.7799C90.7602 64.7799 85.2002 58.2499 79.6702 63.9099C79.6702 63.9099 73.9002 57.8499 70.2302 67.6699C70.2302 67.6699 67.3002 77.5399 75.9002 81.6799C75.9002 81.6799 77.9802 82.2699 79.2402 80.5199C79.2602 80.5199 79.8302 83.3099 76.2002 82.7399C76.2002 82.7399 67.5302 81.4999 68.5702 69.9599C68.4602 69.9599 49.6202 64.3899 42.9102 80.2499C42.9102 80.2499 39.8702 81.2099 40.5902 76.9899C39.5202 77.6099 38.8102 78.5599 38.8102 79.6699C38.8102 81.2799 40.2302 82.6099 42.1802 83.0099C42.1802 83.0099 41.3302 87.6399 43.9502 90.5299C43.9502 90.5299 48.0402 95.0499 50.8502 97.4499C50.9602 97.5599 55.0402 101.2 54.6202 103.69C54.6202 103.69 54.0602 105.23 56.4002 104.84C56.4002 104.75 61.8502 104.84 61.8502 104.84C61.8502 104.84 63.2702 105.04 63.4302 102.16C63.3202 102.16 64.5702 103.69 63.4302 104.75H67.7202C67.7202 104.75 70.3402 104.06 67.9102 101.58C67.9102 101.58 67.3602 101.4 67.7202 100.6C67.6102 100.6 68.3402 99.6499 68.3402 98.4099C68.3402 98.4099 70.7602 106.27 74.1102 107.14C74.2102 107.14 78.3002 108.01 78.0902 103.49C77.9702 103.49 76.5102 98.4099 79.8702 95.4299C79.9602 95.4299 82.1802 92.3399 83.4102 94.3599C83.4102 94.3599 89.1702 104.74 93.0502 92.9199C93.0902 92.9299 93.5302 90.3999 90.8602 88.7899C90.8602 88.7899 87.5102 87.0799 86.8902 86.1099C86.8902 86.1099 88.8701 81.4899 91.5901 82.3499C91.5901 82.3499 94.2002 83.2999 94.8302 82.4499C94.7402 82.4499 95.8702 79.5599 95.8702 79.5599C95.8702 79.5599 115.57 76.8799 102.79 60.7399C102.68 60.7399 102.79 63.1499 102.07 63.7999C102.07 63.7999 105.9 68.8999 102.38 71.4599C102.38 71.4599 98.9602 75.4299 90.7402 64.7699M87.7202 64.8799C87.7202 64.8799 85.0001 62.3899 84.5901 66.0999C84.5901 66.0999 86.2002 64.3999 87.7202 64.8799ZM92.4802 78.9499C92.2602 78.4199 92.4002 77.9499 92.8002 77.8899C93.1902 77.8399 93.6902 78.2099 93.9302 78.7499C94.1202 79.2799 93.9602 79.7399 93.5802 79.7899C93.1902 79.8399 92.7002 79.4699 92.4802 78.9499ZM62.2202 92.3399C62.2202 92.3399 64.1602 92.9899 63.7902 97.3499C63.7902 97.3499 63.0302 98.6199 63.2302 100.5C63.2302 100.59 62.9302 100.4 62.2802 99.1499C62.1902 99.2699 62.2202 92.3299 62.2202 92.3299M89.2302 69.5199C88.6502 68.5899 88.8402 67.6899 89.6502 67.5199C90.4802 67.3599 91.6102 68.0099 92.1802 68.9399C92.7602 69.8999 92.5702 70.7999 91.7602 70.9699C90.9402 71.1299 89.8102 70.4899 89.2302 69.5199Z" fill="white"/>
</g>
<defs>
<clipPath id="clip0_185_264">
<rect width="139.11" height="160" fill="white"/>
</clipPath>
</defs>
</svg>
